<svg width="66" height="66" viewBox="0 0 66 66" fill="none" xmlns="http://www.w3.org/2000/svg">
<path d="M66 33.1003C66 24.0372 58.8958 16.6346 49.9514 16.1542C49.5238 7.15968 42.1001 0 33 0C23.8999 0 16.4762 7.15968 16.0486 16.1542C7.10424 16.632 0 24.0372 0 33.1003C0 42.1634 7.10952 49.5739 16.0591 50.0465C16.5871 58.9459 23.9686 66 33 66C42.0314 66 49.4129 58.9459 49.9409 50.0465C58.8905 49.5713 66 42.1661 66 33.1003Z" fill="url(#paint0_radial_22_960)"/>
<path d="M66 33.1003C66 24.0372 58.8958 16.6346 49.9514 16.1542C49.5238 7.15968 42.1001 0 33 0C23.8999 0 16.4762 7.15968 16.0486 16.1542C7.10424 16.632 0 24.0372 0 33.1003C0 42.1634 7.10952 49.5739 16.0591 50.0465C16.5871 58.9459 23.9686 66 33 66C42.0314 66 49.4129 58.9459 49.9409 50.0465C58.8905 49.5713 66 42.1661 66 33.1003Z" fill="url(#paint1_radial_22_960)" fill-opacity="0.2"/>
<defs>
<radialGradient id="paint0_radial_22_960" cx="0" cy="0" r="1" gradientUnits="userSpaceOnUse" gradientTransform="translate(-2.6969e-07 33.2558) scale(86.9767 54.246)">
<stop offset="0.0865385" stop-color="#E75F33"/>
<stop offset="0.701923" stop-color="#FEFAF9"/>
<stop offset="0.9375" stop-color="#EEB8A8"/>
</radialGradient>
<radialGradient id="paint1_radial_22_960" cx="0" cy="0" r="1" gradientUnits="userSpaceOnUse" gradientTransform="translate(33 33) scale(38.775)">
<stop stop-color="white" stop-opacity="0.2"/>
<stop offset="0.706731" stop-color="white"/>
</radialGradient>
</defs>
</svg>
