<svg width="41" height="41" viewBox="0 0 41 41" fill="none" xmlns="http://www.w3.org/2000/svg">
<path d="M20.1759 40.4744C25.7339 40.4744 30.2735 36.1177 30.5681 30.6326C36.084 30.3703 40.4746 25.8178 40.4746 20.2372C40.4746 14.6566 36.084 10.104 30.5681 9.84175C30.2751 4.35666 25.7338 6.52707e-07 20.1759 8.98808e-07C14.618 1.14491e-06 10.0735 4.3599 9.78371 9.84822C4.32615 10.172 0.000254788 14.6987 0.000255027 20.2372C0.000255266 25.7757 4.32615 30.3023 9.78372 30.6261C10.0751 36.1145 14.6164 40.4744 20.1759 40.4744Z" fill="url(#paint0_radial_458_162)" fill-opacity="0.2"/>
<path d="M20.1759 40.4744C25.7339 40.4744 30.2735 36.1177 30.5681 30.6326C36.084 30.3703 40.4746 25.8178 40.4746 20.2372C40.4746 14.6566 36.084 10.104 30.5681 9.84175C30.2751 4.35666 25.7338 6.52707e-07 20.1759 8.98808e-07C14.618 1.14491e-06 10.0735 4.3599 9.78371 9.84822C4.32615 10.172 0.000254788 14.6987 0.000255027 20.2372C0.000255266 25.7757 4.32615 30.3023 9.78372 30.6261C10.0751 36.1145 14.6164 40.4744 20.1759 40.4744Z" fill="#DB5D34"/>
<path d="M14.1895 21.4512L21.0706 15.1435L27.3783 21.4512" stroke="white" stroke-width="4" stroke-linecap="round"/>
<defs>
<radialGradient id="paint0_radial_458_162" cx="0" cy="0" r="1" gradientUnits="userSpaceOnUse" gradientTransform="translate(20.2374 20.2372) rotate(90) scale(23.7787 23.7787)">
<stop stop-color="white" stop-opacity="0.2"/>
<stop offset="0.706731" stop-color="white"/>
</radialGradient>
</defs>
</svg>
