<svg width="77" height="79" viewBox="0 0 77 79" fill="none" xmlns="http://www.w3.org/2000/svg">
<path d="M4.17233e-07 40.1186C4.17233e-07 29.4076 8.28828 20.6591 18.7233 20.0913C19.2223 9.46144 27.8832 1 38.5 1C49.1168 1 57.7777 9.46144 58.2767 20.0913C68.7117 20.656 77 29.4076 77 40.1186C77 50.8295 68.7056 59.5874 58.2644 60.1458C57.6484 70.6634 49.0367 79 38.5 79C27.9633 79 19.3516 70.6634 18.7356 60.1458C8.29444 59.5842 4.17233e-07 50.8326 4.17233e-07 40.1186Z" fill="#DB5D34"/>
<path d="M33.0879 52L46.0009 37.913L33.0879 25" stroke="white" stroke-width="5" stroke-linecap="round"/>
</svg>
