<svg width="41" height="41" viewBox="0 0 41 41" fill="none" xmlns="http://www.w3.org/2000/svg">
<path d="M20.174 -0.000238751C25.7319 -0.000238505 30.2715 4.35642 30.5662 9.84151C36.082 10.1038 40.4727 14.6563 40.4727 20.2369C40.4727 25.8175 36.082 30.3701 30.5662 30.6324C30.2731 36.1175 25.7319 40.4741 20.174 40.4741C14.616 40.4741 10.0716 36.1142 9.78176 30.6259C4.3242 30.3021 -0.00169834 25.7755 -0.0016981 20.2369C-0.00169786 14.6984 4.3242 10.1718 9.78176 9.84798C10.0732 4.35966 14.6144 -0.000238997 20.174 -0.000238751Z" fill="url(#paint0_radial_458_152)" fill-opacity="0.2"/>
<path d="M20.174 -0.000238751C25.7319 -0.000238505 30.2715 4.35642 30.5662 9.84151C36.082 10.1038 40.4727 14.6563 40.4727 20.2369C40.4727 25.8175 36.082 30.3701 30.5662 30.6324C30.2731 36.1175 25.7319 40.4741 20.174 40.4741C14.616 40.4741 10.0716 36.1142 9.78176 30.6259C4.3242 30.3021 -0.00169834 25.7755 -0.0016981 20.2369C-0.00169786 14.6984 4.3242 10.1718 9.78176 9.84798C10.0732 4.35966 14.6144 -0.000238997 20.174 -0.000238751Z" fill="#DB5D34"/>
<path d="M14.1875 19.0229L21.0686 25.3306L27.3763 19.0229" stroke="white" stroke-width="4" stroke-linecap="round"/>
<defs>
<radialGradient id="paint0_radial_458_152" cx="0" cy="0" r="1" gradientUnits="userSpaceOnUse" gradientTransform="translate(20.2355 20.2369) rotate(-90) scale(23.7787 23.7787)">
<stop stop-color="white" stop-opacity="0.2"/>
<stop offset="0.706731" stop-color="white"/>
</radialGradient>
</defs>
</svg>
